<svg width="24" height="25" viewBox="0 0 24 25" fill="none" xmlns="http://www.w3.org/2000/svg">
<path d="M19.625 22.5L17.583 20.7L16.432 19.63L15.215 18.5L15.715 20.259H4.94701C3.86863 20.2551 2.99725 19.3784 3.00001 18.3V5.457C2.99835 4.37939 3.86941 3.50386 4.94701 3.5H17.678C18.7556 3.50386 19.6267 4.37939 19.625 5.457V22.5ZM15.1 14.008C14.6784 14.5735 14.0713 14.9728 13.385 15.136C13.667 15.496 14.007 15.903 14.01 15.907C15.1571 15.9312 16.2433 15.3917 16.917 14.463C16.8825 12.5377 16.4149 10.6449 15.549 8.925C14.7866 8.32677 13.8586 7.97763 12.891 7.925H12.88L12.747 8.077C13.6113 8.30915 14.4173 8.72 15.113 9.283C14.2278 8.79641 13.2565 8.48665 12.253 8.371C11.6152 8.30017 10.9713 8.30654 10.335 8.39C10.29 8.39089 10.2452 8.39557 10.201 8.404H10.173C9.42736 8.48985 8.69982 8.69232 8.01701 9.004C7.67501 9.161 7.46501 9.275 7.45601 9.279C7.44701 9.283 7.45601 9.279 7.45601 9.272C8.1939 8.69164 9.04518 8.2723 9.95501 8.041L9.85501 7.927H9.84901C8.8814 7.97976 7.95344 8.32888 7.19101 8.927C6.32192 10.6457 5.85417 12.5393 5.82301 14.465C6.48835 15.3999 7.57601 15.9415 8.72301 15.909C8.72301 15.909 9.08101 15.473 9.36001 15.12C8.69101 14.9519 8.10153 14.5558 7.69301 14C7.70001 14.005 7.79901 14.072 7.95901 14.16C7.96976 14.1726 7.98305 14.1829 7.99801 14.19C8.01068 14.1988 8.02406 14.2065 8.03801 14.213C8.05383 14.2202 8.0689 14.2289 8.08301 14.239C8.30612 14.362 8.53771 14.4689 8.77601 14.559C9.22909 14.7384 9.69774 14.8756 10.176 14.969C10.5948 15.0479 11.0199 15.0881 11.446 15.089C11.8455 15.089 12.2442 15.0521 12.637 14.979C13.1101 14.8959 13.5721 14.759 14.014 14.571C14.3958 14.4242 14.76 14.2353 15.1 14.008ZM13.062 13.581C12.6269 13.6189 12.2132 13.3859 12.0201 12.9942C11.8271 12.6025 11.8942 12.1324 12.1893 11.8104C12.4844 11.4885 12.9469 11.3807 13.3539 11.539C13.7609 11.6973 14.029 12.0893 14.029 12.526C14.051 13.0839 13.6188 13.5551 13.061 13.581H13.062ZM9.59401 13.581C9.04686 13.5333 8.62697 13.0752 8.62697 12.526C8.62697 11.9768 9.04686 11.5187 9.59401 11.471C9.84606 11.4718 10.087 11.5746 10.262 11.756C10.4606 11.9621 10.5686 12.2389 10.562 12.525C10.5852 13.0839 10.1518 13.5561 9.59301 13.581H9.59401Z" fill="#E2E2E2"/>
</svg>
